<?xml version="1.0" encoding="utf-8"?>
<svg xmlns="http://www.w3.org/2000/svg" xmlns:xlink="http://www.w3.org/1999/xlink" style="margin: auto; background: none; display: block; z-index: 1; position: relative; shape-rendering: auto;" preserveAspectRatio="xMidYMid" viewBox="0 0 1426 810">
<g transform="translate(713,405) scale(1,1) translate(-713,-405)"><linearGradient id="lg-0.925687934193165" x1="0" x2="1" y1="0" y2="0">
  <stop stop-color="#c9c9c9" offset="0"></stop>
  <stop stop-color="#eeeeee" offset="1"></stop>
</linearGradient><path d="M 1070 405 C 1070 477 950 587 894 632 C 838 677 726 671 656 655 C 586 639 433 620 402 555 C 371 490 345 308 376 243 C 407 178 582 154 652 138 C 722 122 851 117 907 162 C 963 207 1070 333 1070 405" fill="url(#lg-0.925687934193165)" opacity="0.58">
  <animate attributeName="d" dur="100s" repeatCount="indefinite" keyTimes="0;0.3333333333333333;0.6666666666666666;1" calcmod="spline" keySplines="0.3 0.1 0.7 0.9;0.3 0.1 0.7 0.9;0.3 0.1 0.7 0.9" begin="-66.66666666666667s" values="M 1070 405 C 1070 477 950 587 894 632 C 838 677 726 671 656 655 C 586 639 433 620 402 555 C 371 490 345 308 376 243 C 407 178 582 154 652 138 C 722 122 851 117 907 162 C 963 207 1070 333 1070 405;M 1115 405 C 1115 480 997 640 938 687 C 879 734 730 665 657 648 C 584 631 460 611 427 543 C 394 475 386 331 419 263 C 452 195 576 142 649 125 C 722 108 836 129 895 176 C 954 223 1115 330 1115 405;M 1189 405 C 1189 492 992 616 924 670 C 856 724 734 706 649 687 C 564 668 383 661 345 582 C 307 503 300 304 338 225 C 376 146 561 131 646 112 C 731 93 853 90 921 144 C 989 198 1189 318 1189 405;M 1070 405 C 1070 477 950 587 894 632 C 838 677 726 671 656 655 C 586 639 433 620 402 555 C 371 490 345 308 376 243 C 407 178 582 154 652 138 C 722 122 851 117 907 162 C 963 207 1070 333 1070 405"></animate>
</path><path d="M 1434 405 C 1434 539 1138 722 1033 806 C 928 890 739 896 608 866 C 477 836 181 810 123 689 C 65 568 38 229 96 108 C 154 -13 464 -81 595 -111 C 726 -141 935 -89 1040 -5 C 1145 79 1434 271 1434 405" fill="url(#lg-0.925687934193165)" opacity="0.58">
  <animate attributeName="d" dur="100s" repeatCount="indefinite" keyTimes="0;0.3333333333333333;0.6666666666666666;1" calcmod="spline" keySplines="0.3 0.1 0.7 0.9;0.3 0.1 0.7 0.9;0.3 0.1 0.7 0.9" begin="-66.66666666666667s" values="M 1434 405 C 1434 539 1138 722 1033 806 C 928 890 739 896 608 866 C 477 836 181 810 123 689 C 65 568 38 229 96 108 C 154 -13 464 -81 595 -111 C 726 -141 935 -89 1040 -5 C 1145 79 1434 271 1434 405;M 1273 405 C 1273 524 1099 699 1006 773 C 913 847 734 848 618 821 C 502 794 320 727 268 620 C 216 513 162 272 214 165 C 266 58 509 44 625 18 C 741 -8 951 -84 1044 -10 C 1137 64 1273 286 1273 405;M 1167 405 C 1167 509 1032 640 951 704 C 870 768 734 778 633 755 C 532 732 360 690 315 597 C 270 504 206 276 251 183 C 296 90 542 121 643 98 C 744 75 936 -41 1017 23 C 1098 87 1167 301 1167 405;M 1434 405 C 1434 539 1138 722 1033 806 C 928 890 739 896 608 866 C 477 836 181 810 123 689 C 65 568 38 229 96 108 C 154 -13 464 -81 595 -111 C 726 -141 935 -89 1040 -5 C 1145 79 1434 271 1434 405"></animate>
</path><path d="M 1268 405 C 1268 528 1095 686 999 763 C 903 840 725 904 605 877 C 485 850 267 756 214 645 C 161 534 82 238 135 127 C 188 16 498 14 618 -13 C 738 -40 958 -99 1054 -22 C 1150 55 1268 282 1268 405" fill="url(#lg-0.925687934193165)" opacity="0.58">
  <animate attributeName="d" dur="100s" repeatCount="indefinite" keyTimes="0;0.3333333333333333;0.6666666666666666;1" calcmod="spline" keySplines="0.3 0.1 0.7 0.9;0.3 0.1 0.7 0.9;0.3 0.1 0.7 0.9" begin="-66.66666666666667s" values="M 1268 405 C 1268 528 1095 686 999 763 C 903 840 725 904 605 877 C 485 850 267 756 214 645 C 161 534 82 238 135 127 C 188 16 498 14 618 -13 C 738 -40 958 -99 1054 -22 C 1150 55 1268 282 1268 405;M 1218 405 C 1218 510 1041 647 959 713 C 877 779 747 730 644 706 C 541 682 328 708 282 613 C 236 518 203 277 249 182 C 295 87 532 85 635 62 C 738 39 873 35 955 101 C 1037 167 1218 300 1218 405;M 1096 405 C 1096 477 957 595 901 640 C 845 685 722 687 652 671 C 582 655 438 618 407 553 C 376 488 408 338 439 273 C 470 208 592 199 662 183 C 732 167 823 152 879 197 C 935 242 1096 333 1096 405;M 1268 405 C 1268 528 1095 686 999 763 C 903 840 725 904 605 877 C 485 850 267 756 214 645 C 161 534 82 238 135 127 C 188 16 498 14 618 -13 C 738 -40 958 -99 1054 -22 C 1150 55 1268 282 1268 405"></animate>
</path></g>
</svg>