<?xml version="1.0" encoding="utf-8"?>
<svg xmlns="http://www.w3.org/2000/svg" xmlns:xlink="http://www.w3.org/1999/xlink" style="margin: auto; display: block; z-index: 1; position: relative; shape-rendering: auto;" width="1512" height="810" preserveAspectRatio="xMidYMid" viewBox="0 0 1512 810">
<g transform="translate(756,405) scale(1,1) translate(-756,-405)"><linearGradient id="lg-0.3660146375488127" x1="0" x2="1" y1="0" y2="0">
  <stop stop-color="#df1317" offset="0"></stop>
  <stop stop-color="#e4934b" offset="1"></stop>
</linearGradient><path d="M 1190 405 C 1190 484 1035 629 974 678 C 913 727 781 650 704 632 C 627 614 433 648 399 577 C 365 506 395 318 429 247 C 463 176 620 163 697 146 C 774 129 890 111 951 160 C 1012 209 1190 326 1190 405" fill="url(#lg-0.3660146375488127)" opacity="0.23">
  <animate attributeName="d" dur="100s" repeatCount="indefinite" keyTimes="0;0.3333333333333333;0.6666666666666666;1" calcmod="spline" keySplines="0.3 0.1 0.7 0.9;0.3 0.1 0.7 0.9;0.3 0.1 0.7 0.9" begin="-66.66666666666667s" values="M 1190 405 C 1190 484 1035 629 974 678 C 913 727 781 650 704 632 C 627 614 433 648 399 577 C 365 506 395 318 429 247 C 463 176 620 163 697 146 C 774 129 890 111 951 160 C 1012 209 1190 326 1190 405;M 1099 405 C 1099 475 973 564 918 608 C 863 652 762 691 694 675 C 626 659 521 595 491 532 C 461 469 388 305 418 242 C 448 179 633 180 701 164 C 769 148 877 140 932 184 C 987 228 1099 335 1099 405;M 1081 405 C 1081 465 953 555 906 593 C 859 631 765 639 706 626 C 647 613 526 582 500 528 C 474 474 476 337 502 283 C 528 229 650 213 709 200 C 768 187 885 146 932 184 C 979 222 1081 345 1081 405;M 1190 405 C 1190 484 1035 629 974 678 C 913 727 781 650 704 632 C 627 614 433 648 399 577 C 365 506 395 318 429 247 C 463 176 620 163 697 146 C 774 129 890 111 951 160 C 1012 209 1190 326 1190 405"></animate>
</path><path d="M 1107 405 C 1107 484 1044 639 982 688 C 920 737 777 669 700 651 C 623 633 441 644 407 573 C 373 502 416 329 450 258 C 484 187 618 156 695 138 C 772 120 922 70 984 119 C 1046 168 1107 326 1107 405" fill="url(#lg-0.3660146375488127)" opacity="0.23">
  <animate attributeName="d" dur="100s" repeatCount="indefinite" keyTimes="0;0.3333333333333333;0.6666666666666666;1" calcmod="spline" keySplines="0.3 0.1 0.7 0.9;0.3 0.1 0.7 0.9;0.3 0.1 0.7 0.9" begin="-66.66666666666667s" values="M 1107 405 C 1107 484 1044 639 982 688 C 920 737 777 669 700 651 C 623 633 441 644 407 573 C 373 502 416 329 450 258 C 484 187 618 156 695 138 C 772 120 922 70 984 119 C 1046 168 1107 326 1107 405;M 1120 405 C 1120 476 1021 621 965 666 C 909 711 768 676 698 660 C 628 644 454 629 423 565 C 392 501 382 304 413 240 C 444 176 628 165 698 149 C 768 133 870 147 926 191 C 982 235 1120 334 1120 405;M 1087 405 C 1087 472 966 561 914 603 C 862 645 772 635 707 620 C 642 605 483 610 454 550 C 425 490 428 321 457 261 C 486 201 639 192 704 177 C 769 162 860 167 912 209 C 964 251 1087 338 1087 405;M 1107 405 C 1107 484 1044 639 982 688 C 920 737 777 669 700 651 C 623 633 441 644 407 573 C 373 502 416 329 450 258 C 484 187 618 156 695 138 C 772 120 922 70 984 119 C 1046 168 1107 326 1107 405"></animate>
</path><path d="M 1063 405 C 1063 476 978 571 923 615 C 868 659 777 632 708 616 C 639 600 463 625 432 561 C 401 497 382 304 413 240 C 444 176 641 218 710 202 C 779 186 892 122 947 166 C 1002 210 1063 334 1063 405" fill="url(#lg-0.3660146375488127)" opacity="0.23">
  <animate attributeName="d" dur="100s" repeatCount="indefinite" keyTimes="0;0.3333333333333333;0.6666666666666666;1" calcmod="spline" keySplines="0.3 0.1 0.7 0.9;0.3 0.1 0.7 0.9;0.3 0.1 0.7 0.9" begin="-66.66666666666667s" values="M 1063 405 C 1063 476 978 571 923 615 C 868 659 777 632 708 616 C 639 600 463 625 432 561 C 401 497 382 304 413 240 C 444 176 641 218 710 202 C 779 186 892 122 947 166 C 1002 210 1063 334 1063 405;M 1116 405 C 1116 474 1000 601 946 644 C 892 687 771 653 703 638 C 635 623 476 616 446 554 C 416 492 417 318 447 256 C 477 194 628 157 696 142 C 764 127 886 131 940 174 C 994 217 1116 336 1116 405;M 1061 405 C 1061 474 997 597 943 640 C 889 683 778 616 711 600 C 644 584 463 622 433 560 C 403 498 420 320 450 258 C 480 196 634 177 701 162 C 768 147 884 134 938 177 C 992 220 1061 336 1061 405;M 1063 405 C 1063 476 978 571 923 615 C 868 659 777 632 708 616 C 639 600 463 625 432 561 C 401 497 382 304 413 240 C 444 176 641 218 710 202 C 779 186 892 122 947 166 C 1002 210 1063 334 1063 405"></animate>
</path></g>
</svg>