<?xml version="1.0" encoding="utf-8"?>
<svg xmlns="http://www.w3.org/2000/svg" xmlns:xlink="http://www.w3.org/1999/xlink" style="margin: auto; display: block; z-index: 1; position: relative; shape-rendering: auto;" width="1512" height="810" preserveAspectRatio="xMidYMid" viewBox="0 0 1512 810">
<g transform="translate(756,405) scale(1,1) translate(-756,-405)"><linearGradient id="lg-0.08501378329192777" x1="0" x2="1" y1="0" y2="0">
  <stop stop-color="#85a2b6" offset="0"></stop>
  <stop stop-color="#bbcedd" offset="1"></stop>
</linearGradient><path d="M 1090 405 C 1090 467 950 549 902 588 C 854 627 763 652 703 638 C 643 624 486 604 459 548 C 432 492 465 334 492 278 C 519 222 644 190 704 176 C 764 162 889 137 938 176 C 987 215 1090 343 1090 405" fill="url(#lg-0.08501378329192777)" opacity="0.23">
  <animate attributeName="d" dur="50s" repeatCount="indefinite" keyTimes="0;0.3333333333333333;0.6666666666666666;1" calcmod="spline" keySplines="0.3 0.1 0.7 0.9;0.3 0.1 0.7 0.9;0.3 0.1 0.7 0.9" begin="-33.333333333333336s" values="M 1090 405 C 1090 467 950 549 902 588 C 854 627 763 652 703 638 C 643 624 486 604 459 548 C 432 492 465 334 492 278 C 519 222 644 190 704 176 C 764 162 889 137 938 176 C 987 215 1090 343 1090 405;M 1035 405 C 1035 464 978 589 932 626 C 886 663 769 617 711 604 C 653 591 540 575 514 522 C 488 469 470 333 496 280 C 522 227 646 191 704 178 C 762 165 850 192 896 229 C 942 266 1035 346 1035 405;M 1130 405 C 1130 481 1030 628 971 675 C 912 722 765 707 691 690 C 617 673 455 634 422 566 C 389 498 404 319 437 251 C 470 183 630 195 704 178 C 778 161 887 120 946 167 C 1005 214 1130 329 1130 405;M 1090 405 C 1090 467 950 549 902 588 C 854 627 763 652 703 638 C 643 624 486 604 459 548 C 432 492 465 334 492 278 C 519 222 644 190 704 176 C 764 162 889 137 938 176 C 987 215 1090 343 1090 405"></animate>
</path><path d="M 1126 405 C 1126 476 980 573 925 617 C 870 661 770 662 701 646 C 632 630 475 619 444 555 C 413 491 394 310 425 246 C 456 182 635 195 704 179 C 773 163 868 152 923 196 C 978 240 1126 334 1126 405" fill="url(#lg-0.08501378329192777)" opacity="0.23">
  <animate attributeName="d" dur="50s" repeatCount="indefinite" keyTimes="0;0.3333333333333333;0.6666666666666666;1" calcmod="spline" keySplines="0.3 0.1 0.7 0.9;0.3 0.1 0.7 0.9;0.3 0.1 0.7 0.9" begin="-33.333333333333336s" values="M 1126 405 C 1126 476 980 573 925 617 C 870 661 770 662 701 646 C 632 630 475 619 444 555 C 413 491 394 310 425 246 C 456 182 635 195 704 179 C 773 163 868 152 923 196 C 978 240 1126 334 1126 405;M 1120 405 C 1120 485 1045 638 982 688 C 919 738 769 709 691 691 C 613 673 465 634 430 562 C 395 490 336 291 371 219 C 406 147 614 145 692 127 C 770 109 879 122 942 172 C 1005 222 1120 325 1120 405;M 1147 405 C 1147 484 1024 613 962 663 C 900 713 772 689 695 671 C 618 653 480 627 445 555 C 410 483 375 310 409 238 C 443 166 617 151 694 133 C 771 115 897 101 959 151 C 1021 201 1147 326 1147 405;M 1126 405 C 1126 476 980 573 925 617 C 870 661 770 662 701 646 C 632 630 475 619 444 555 C 413 491 394 310 425 246 C 456 182 635 195 704 179 C 773 163 868 152 923 196 C 978 240 1126 334 1126 405"></animate>
</path><path d="M 1100 405 C 1100 474 980 575 926 618 C 872 661 761 696 693 681 C 625 666 460 625 430 562 C 400 499 434 328 464 265 C 494 202 633 179 701 164 C 769 149 864 158 918 201 C 972 244 1100 336 1100 405" fill="url(#lg-0.08501378329192777)" opacity="0.23">
  <animate attributeName="d" dur="50s" repeatCount="indefinite" keyTimes="0;0.3333333333333333;0.6666666666666666;1" calcmod="spline" keySplines="0.3 0.1 0.7 0.9;0.3 0.1 0.7 0.9;0.3 0.1 0.7 0.9" begin="-33.333333333333336s" values="M 1100 405 C 1100 474 980 575 926 618 C 872 661 761 696 693 681 C 625 666 460 625 430 562 C 400 499 434 328 464 265 C 494 202 633 179 701 164 C 769 149 864 158 918 201 C 972 244 1100 336 1100 405;M 1065 405 C 1065 468 970 573 921 612 C 872 651 768 635 707 621 C 646 607 526 585 499 529 C 472 473 458 330 485 274 C 512 218 651 227 712 213 C 773 199 881 147 930 186 C 979 225 1065 342 1065 405;M 1099 405 C 1099 474 981 576 927 619 C 873 662 775 636 707 621 C 639 606 460 624 430 562 C 400 500 461 339 491 277 C 521 215 636 191 704 176 C 772 161 891 126 945 169 C 999 212 1099 336 1099 405;M 1100 405 C 1100 474 980 575 926 618 C 872 661 761 696 693 681 C 625 666 460 625 430 562 C 400 499 434 328 464 265 C 494 202 633 179 701 164 C 769 149 864 158 918 201 C 972 244 1100 336 1100 405"></animate>
</path></g>
</svg>